<svg viewBox="0 0 28 28" xmlns="http://www.w3.org/2000/svg" ><path fill-rule="evenodd" clip-rule="evenodd" d="M23.392 7H4.608C3.87 7 3.5 7.37 3.5 8.108v.117c0 .739.37 1.108 1.108 1.108h18.784c.739 0 1.108-.37 1.108-1.108v-.117C24.5 7.37 24.13 7 23.392 7zM4.608 12.833h18.784c.739 0 1.108.37 1.108 1.109v.116c0 .74-.37 1.109-1.108 1.109H4.608c-.739 0-1.108-.37-1.108-1.109v-.116c0-.74.37-1.109 1.108-1.109zm0 5.834h18.784c.739 0 1.108.37 1.108 1.108v.117c0 .739-.37 1.108-1.108 1.108H4.608C3.87 21 3.5 20.63 3.5 19.892v-.117c0-.739.37-1.108 1.108-1.108z" fill-opacity=".92" filter="url(#a)"></path><defs><filter id="a" x="-23.683" y="-20.183" width="75.366" height="68.366" filterUnits="userSpaceOnUse" color-interpolation-filters="sRGB"><feFlood flood-opacity="0" result="BackgroundImageFix"></feFlood><feGaussianBlur in="BackgroundImage" stdDeviation="13.591"></feGaussianBlur><feComposite in2="SourceAlpha" operator="in" result="effect1_backgroundBlur"></feComposite><feBlend in="SourceGraphic" in2="effect1_backgroundBlur" result="shape"></feBlend></filter></defs></svg>