<svg fill="none" viewBox="0 0 17 14" xmlns="http://www.w3.org/2000/svg"><path clip-rule="evenodd" d="m14.6599 2.16886c.7041-.42856 1.2447-1.10718 1.4994-1.915686-.6589.396639-1.3887.684854-2.165.840246-.622-.673114-1.5083-1.09342-2.4886-1.09342-1.88296 0-3.4095 1.55023-3.4095 3.46261 0 .27134.02998.5357.08815.78906-2.83343-.1442-5.34641-1.52289-7.02739-3.618001-.293529.511481-.46188 1.106261-.46188 1.740851 0 1.20129.60187 2.26095 1.5166 2.88214-.55852-.01798-1.08452-.17337-1.544237-.43278-.000361.01431-.000361.02862-.000361.0433 0 1.67792 1.175568 3.07735 2.734978 3.39546-.28576.07926-.58706.12164-.89829.12164-.21947 0-.4328-.02165-.64143-.06219.43388 1.37558 1.69344 2.37691 3.18512 2.40461-1.16708.9288-2.6369 1.4825-4.234246 1.4825-.275105 0-.546418-.0165-.813214-.049 1.50866.9828 3.30036 1.5563 5.22647 1.5563 6.27103 0 9.70063-5.27682 9.70063-9.85284 0-.14971-.0033-.29923-.01-.44801.666-.48764 1.2439-1.09746 1.7012-1.79222-.6118.27556-1.2686.46159-1.9584.54543z" fill-rule="evenodd"/></svg>