<svg viewBox="0 0 16 15" xmlns="http://www.w3.org/2000/svg"><path d="m1 8h11.86l-3.63 4.36c-.42621.5133-.38277.9832.13031 1.4096.51308.4265.98299.3833 1.40969-.1296l5-6c.0337-.04779.0637-.09779.09-.15 0-.05.05-.08.07-.13.0457-.11564.0691-.23565.07-.36-.001-.12435-.0243-.24435-.07-.36 0-.05-.05-.08-.07-.13-.0263-.05221-.0563-.10221-.09-.15l-5-5.999997c-.2003-.240509-.457-.36050914-.77-.36000084-.24106-.0004711-.45439.07619574-.64.22999984-.21296.176557-.33214.402567-.35754.678029-.02539.275459.05045.519449.22754.731969l3.63 4.36h-11.86c-.666667 0-1 .33333-1 1s.333333 1 1 1z"/></svg>