<svg fill="none" viewBox="0 0 21 14" xmlns="http://www.w3.org/2000/svg"><path clip-rule="evenodd" d="m18.7414 6.26008v-1.97006h-1.7632v1.97006h-1.9087v1.81976h1.9087v1.96926h1.7632v-1.96926h1.9086v-1.81976zm-5.8649 0h-6.1105v1.87148h4.3337c-.2145 2.62374-2.33052 3.74534-4.32735 3.74534-2.55463 0-4.78506-2.07507-4.78506-4.98572 0-2.83308 2.12634-5.01404 4.79063-5.01404 2.05642 0 3.26818 1.3535 3.26818 1.3535l1.2698-1.35916s-1.62976-1.87148-4.60235-1.87148c-3.78466 0-6.71355 3.29771-6.71355 6.85805 0 3.49165 2.75487 6.89365 6.8097 6.89365 3.5669 0 6.1772-2.522 6.1772-6.25043 0-.78706-.1104-1.242-.1104-1.242z" fill-rule="evenodd"/></svg>