<svg viewBox="0 0 28 28" xmlns="http://www.w3.org/2000/svg"><path fill-rule="evenodd" clip-rule="evenodd" d="M24.162 22.505l-3.967-3.955c1.317-1.678 1.974-3.584 1.972-5.717 0-4.157-1.92-7.031-5.762-8.623-3.841-1.59-7.232-.916-10.171 2.024-2.94 2.94-3.615 6.33-2.024 10.171 1.591 3.841 4.466 5.762 8.623 5.762 2.133.002 4.039-.655 5.717-1.972l3.955 3.967c.228.23.504.345.828.345.324 0 .6-.115.829-.345.23-.229.345-.505.345-.829 0-.324-.115-.6-.345-.828zM5.833 12.833c0-1.933.684-3.583 2.05-4.95 1.367-1.366 3.017-2.05 4.95-2.05 1.933 0 3.583.684 4.95 2.05 1.367 1.367 2.05 3.017 2.05 4.95 0 1.933-.683 3.583-2.05 4.95-1.367 1.367-3.017 2.05-4.95 2.05-1.933 0-3.583-.683-4.95-2.05-1.366-1.367-2.05-3.017-2.05-4.95z" fill-opacity=".92" filter="url(#icon-search-svg)"></path><defs><filter id="icon-search-svg" x="-23.81" y="-23.81" width="75.5" height="75.5" filterUnits="userSpaceOnUse" color-interpolation-filters="sRGB"><feFlood flood-opacity="0" result="BackgroundImageFix"></feFlood><feGaussianBlur in="BackgroundImage" stdDeviation="13.591"></feGaussianBlur><feComposite in2="SourceAlpha" operator="in" result="effect1_backgroundBlur"></feComposite><feBlend in="SourceGraphic" in2="effect1_backgroundBlur" result="shape"></feBlend></filter></defs></svg>