<svg fill="none" viewBox="0 0 18 18" xmlns="http://www.w3.org/2000/svg"><path clip-rule="evenodd" d="m13.2893 3.15814c-.5873 0-1.0644.48436-1.0644 1.08326 0 .59808.4771 1.08326 1.0644 1.08326.5881 0 1.0652-.48518 1.0652-1.08326 0-.5989-.4771-1.08326-1.0652-1.08326zm-4.43942 8.81986c-1.61389 0-2.9277-1.336-2.9277-2.97894 0-1.64207 1.31381-2.97732 2.9277-2.97732 1.61472 0 2.92852 1.33525 2.92852 2.97732 0 1.64294-1.3138 2.97894-2.92852 2.97894zm0-7.63269c-2.52221 0-4.57458 2.08797-4.57458 4.65375 0 2.56664 2.05237 4.65454 4.57458 4.65454 2.52302 0 4.57542-2.0879 4.57542-4.65454 0-2.56578-2.0524-4.65375-4.57542-4.65375zm7.18292 7.19659c-.0081.5605-.0298 1.1586-.1336 1.7247-.2816 1.5407-1.1416 2.4775-2.6284 2.8645-.683.1775-1.4103.1832-2.1795.1881h-.008c-.3741.0025-.7579.0033-1.17304.0033-1.04429 0-2.10788-.0074-3.13769-.0155l-.69109-.0049c-.50847-.0041-1.10543-.0279-1.68148-.1768-1.12635-.2912-1.89226-.9327-2.3428-1.9611-.28481-.6537-.34917-1.3762-.37411-1.9972-.00563-.1342-.01529-.261-.02575-.3837l-.00965-.1227v-5.26168c.01046-.05319.02333-.12764.02574-.21355.0177-.61608.04264-1.16916.17298-1.6977.28883-1.16671.93245-1.95543 1.96869-2.41115.62996-.27736 1.32668-.33954 1.92526-.36491.13194-.00572.25745-.01636.37813-.02618l.11987-.00982h5.17714c.0427.009.0966.01719.1585.02291.1754.01555.3492.02618.5165.036.3331.02046.6469.03927.9373.09409.7611.14564 1.3822.44018 1.844.87463.4634.43772.7957 1.0448.9872 1.8057.1714.68154.1778 1.40889.185 2.17715v.06628c.0145 1.60934.0113 3.22114-.0112 4.78953zm1.6589-4.80426-.0008-.06627c-.0072-.83536-.0153-1.69934-.2357-2.57806-.5399-2.1477-1.9663-3.500136-4.1241-3.910858-.3926-.075272-.7739-.0981804-1.1432-.120271-.1593-.0089999-.3106-.0188179-.4594-.0319087-.008-.0016363-.0153-.0032727-.0233-.004909-.0217-.0032727-.0435-.0081817-.0668-.0122726l-.0708-.0130907h-5.39119l-.02976.00245451c-.05471.00409086-.11022.00818169-.16413.01309069-.10942.0089999-.2124.0179998-.30894.0220907-.70638.0294541-1.62999.1129071-2.51256.5007211-1.51736.667623-2.496474 1.858883-2.911614 3.540223-.1673434.67745-.2011339 1.34017-.2212473 2.01434-.0056317.02536-.0104589.04991-.0152861.07445l-.0128726.07282v5.48341l.0024136.0302c.00402268.0565.0088499.1121.0136771.1678.0088499.1104.0168952.2143.0209179.3133.0289633.7339.1150484 1.6928.5157064 2.61.658915 1.5071 1.817445 2.4848 3.441805 2.9037.75143.1947 1.50287.2242 2.07409.2291l.6919.0049c1.03221.0073 2.09903.0163 3.14975.0163.41914 0 .80614-.0016 1.18344-.004h.0081c.8351-.0058 1.6992-.0115 2.5769-.2406 2.1119-.5498 3.4402-1.9955 3.84-4.1808.1264-.6922.1521-1.4032.161-2.0078.0217-1.58156.0265-3.20563.012-4.82806z" fill-rule="evenodd"/></svg>