<svg viewBox="0 0 28 28" xmlns="http://www.w3.org/2000/svg" xmlns:xlink="http://www.w3.org/1999/xlink"><filter id="a" color-interpolation-filters="sRGB" filterUnits="userSpaceOnUse" height="68.366" width="75.366" x="-23.683" y="-20.183"><feFlood flood-opacity="0" result="BackgroundImageFix"/><feGaussianBlur in="BackgroundImage" stdDeviation="13.591"/><feComposite in2="SourceAlpha" operator="in" result="effect1_backgroundBlur"/><feBlend in="SourceGraphic" in2="effect1_backgroundBlur" result="shape"/></filter><path clip-rule="evenodd" d="m23.392 7h-18.784c-.738 0-1.108.37-1.108 1.108v.117c0 .739.37 1.108 1.108 1.108h18.784c.739 0 1.108-.37 1.108-1.108v-.117c0-.738-.37-1.108-1.108-1.108zm-18.784 5.833h18.784c.739 0 1.108.37 1.108 1.109v.116c0 .74-.37 1.109-1.108 1.109h-18.784c-.739 0-1.108-.37-1.108-1.109v-.116c0-.74.37-1.109 1.108-1.109zm0 5.834h18.784c.739 0 1.108.37 1.108 1.108v.117c0 .739-.37 1.108-1.108 1.108h-18.784c-.738 0-1.108-.37-1.108-1.108v-.117c0-.739.37-1.108 1.108-1.108z" fill-opacity=".92" fill-rule="evenodd" filter="url(#a)"/></svg>