<svg viewBox="0 0 28 28" xmlns="http://www.w3.org/2000/svg" xmlns:xlink="http://www.w3.org/1999/xlink"><filter id="a" color-interpolation-filters="sRGB" filterUnits="userSpaceOnUse" height="75.5" width="75.5" x="-23.81" y="-23.81"><feFlood flood-opacity="0" result="BackgroundImageFix"/><feGaussianBlur in="BackgroundImage" stdDeviation="13.591"/><feComposite in2="SourceAlpha" operator="in" result="effect1_backgroundBlur"/><feBlend in="SourceGraphic" in2="effect1_backgroundBlur" result="shape"/></filter><path clip-rule="evenodd" d="m24.162 22.505-3.967-3.955c1.317-1.678 1.974-3.584 1.972-5.717 0-4.157-1.92-7.031-5.762-8.623-3.841-1.59-7.232-.916-10.171 2.024-2.94 2.94-3.615 6.33-2.024 10.171s4.466 5.762 8.623 5.762c2.133.002 4.039-.655 5.717-1.972l3.955 3.967c.228.23.504.345.828.345s.6-.115.829-.345c.23-.229.345-.505.345-.829s-.115-.6-.345-.828zm-18.329-9.672c0-1.933.684-3.583 2.05-4.95 1.367-1.366 3.017-2.05 4.95-2.05s3.583.684 4.95 2.05c1.367 1.367 2.05 3.017 2.05 4.95s-.683 3.583-2.05 4.95-3.017 2.05-4.95 2.05-3.583-.683-4.95-2.05c-1.366-1.367-2.05-3.017-2.05-4.95z" fill-opacity=".92" fill-rule="evenodd" filter="url(#a)"/></svg>