<svg viewBox="0 0 21 14" fill="none" xmlns="http://www.w3.org/2000/svg">
<path fill-rule="evenodd" clip-rule="evenodd" d="M18.7414 6.26008V4.29002H16.9782V6.26008H15.0695V8.07984H16.9782V10.0491H18.7414V8.07984H20.65V6.26008H18.7414ZM12.8765 6.26008H6.766V8.13156H11.0997C10.8852 10.7553 8.76918 11.8769 6.77235 11.8769C4.21772 11.8769 1.98729 9.80183 1.98729 6.89118C1.98729 4.0581 4.11363 1.87714 6.77792 1.87714C8.83434 1.87714 10.0461 3.23064 10.0461 3.23064L11.3159 1.87148C11.3159 1.87148 9.68614 0 6.71355 0C2.92889 0 0 3.29771 0 6.85805C0 10.3497 2.75487 13.7517 6.8097 13.7517C10.3766 13.7517 12.9869 11.2297 12.9869 7.50127C12.9869 6.71421 12.8765 6.25927 12.8765 6.25927V6.26008Z" />
</svg>
