<svg fill="none" height="48" viewBox="0 0 88 48" width="88" xmlns="http://www.w3.org/2000/svg"><g clip-rule="evenodd" fill-rule="evenodd"><path d="m0 44.1909v-15.1909h5.01103l3.05218 9.9988 3.00659-9.9988h5.0338v15.1909h-3.576l.1139-11.4272-3.30276 11.4272h-2.57385l-3.30272-11.4272.13666 11.4272zm19.0972-12.6062v-2.5847h3.4394v2.5847zm0 12.6062v-11.4045h3.4394v11.4045zm8.3236 0-3.485-11.4045h3.5305l1.7539 7.074 1.8905-7.074h2.8927l1.9133 7.074 1.7311-7.074h3.5305l-3.5077 11.4045h-3.1888l-1.9361-7.3687-1.9361 7.3687zm23.8577 0v-1.2243c-.5467 1.0732-1.7311 1.6098-3.5533 1.6098-1.7159 0-3.1129-.5668-4.191-1.7005-1.0782-1.1337-1.6172-2.5998-1.6172-4.3986 0-1.7836.5504-3.246 1.6513-4.3872s2.5169-1.7118 4.248-1.7118c1.6856 0 2.8396.5366 3.4622 1.6098v-1.2017h3.2344v11.4045zm-5.9221-5.7362c0 .8313.2733 1.5266.8199 2.0859.5467.5592 1.23.8389 2.05.8389.8352 0 1.5223-.2721 2.0614-.8163.539-.5441.8086-1.2394.8086-2.0859 0-.8313-.2734-1.5191-.82-2.0632-.5467-.5442-1.2376-.8162-2.0728-.8162-.8048 0-1.4805.2758-2.0272.8275-.5466.5517-.8199 1.2281-.8199 2.0293zm14.7239 5.1694-4.2593-10.8377h3.6443l2.3233 6.6205 2.2095-6.6205h3.6443l-5.7399 15.2136h-3.6444zm8.7336.5668v-15.1909h3.4393v15.1909zm14.9517 0v-1.2243c-.5467 1.0732-1.7311 1.6098-3.5533 1.6098-1.7159 0-3.1129-.5668-4.191-1.7005-1.0782-1.1337-1.6172-2.5998-1.6172-4.3986 0-1.7836.5504-3.246 1.6513-4.3872 1.101-1.1412 2.5169-1.7118 4.248-1.7118 1.6856 0 2.8396.5366 3.4622 1.6098v-1.2017h3.2344v11.4045zm-5.9221-5.7362c0 .8313.2733 1.5266.82 2.0859.5466.5592 1.2299.8389 2.0499.8389.8352 0 1.5223-.2721 2.0614-.8163.5391-.5441.8086-1.2394.8086-2.0859 0-.8313-.2733-1.5191-.82-2.0632-.5467-.5442-1.2376-.8162-2.0727-.8162-.8049 0-1.4806.2758-2.0272.8275-.5467.5517-.82 1.2281-.82 2.0293z" /><path d="m54.0555 9.44444c-2.608 0-4.7222-2.11421-4.7222-4.72222s2.1142-4.72222 4.7222-4.72222c2.6081 0 4.7223 2.11421 4.7223 4.72222s-2.1142 4.72222-4.7223 4.72222zm-16.7218 9.69856-8.8903 10.372c-.4992.5824-1.376.6498-1.9584.1506s-.6498-1.376-.1506-1.9584l15-17.5c.5543-.64665 1.5547-.64665 2.109 0l5.7725 6.7346 3.0791-3.4258c.561-.6241 1.5431-.612 2.0885.0258l11.2832 13.1944c.4985.583.43 1.4597-.1529 1.9583-.583.4985-1.4597.43-1.9583-.153l-10.2535-11.9904-2.263 2.5177 7.4044 8.6384c.4992.5824.4318 1.4592-.1506 1.9584s-1.4592.4318-1.9584-.1506l-8.9214-10.4083-1.835 2.0508c-.448.5007-1.2344.4924-1.6716-.0177l-1.632-1.904-1.5219 1.88c-.4367.5394-1.2556.5509-1.7072.024zm1.4634-1.7074 1.0674 1.2453 1.5219-1.88c.4367-.5394 1.2555-.551 1.7072-.024l1.6743 1.9534 1.1861-1.3257-3.5651-4.1593zm17.7584-12.99116c0 1.38072-1.1192 2.5-2.5 2.5-1.3807 0-2.5-1.11928-2.5-2.5 0-1.38071 1.1193-2.5 2.5-2.5 1.3808 0 2.5 1.11929 2.5 2.5z" fill="#43d29e"/></g></svg>